<svg width="85" height="44" viewBox="0 0 85 44" fill="none" xmlns="http://www.w3.org/2000/svg">
<path d="M25.685 9C24.785 9.1 23.785 9.10001 22.885 8.90001C22.685 8.90001 22.385 8.8 22.185 8.7C21.985 8.6 21.685 8.6 21.485 8.5C21.285 8.4 21.085 8.3 20.785 8.2L20.485 8L20.185 7.8C19.785 7.5 19.385 7.2 19.085 6.8C18.785 6.4 18.585 6 18.385 5.5C18.285 5 18.185 4.5 18.285 4C18.385 3.5 18.585 3.00001 18.785 2.60001C19.285 1.70001 20.185 1.1 21.085 0.699997C21.985 0.299997 22.985 0.1 23.985 0H24.685H24.785H24.885H25.085H25.485C25.985 0 26.485 0.100006 26.885 0.100006C27.085 0.100006 27.385 0.199997 27.585 0.199997L28.285 0.300003C28.785 0.400003 29.185 0.499997 29.685 0.699997C31.485 1.2 33.285 2 34.985 2.7C36.685 3.5 38.385 4.4 40.085 5.2C43.385 7 46.685 8.8 50.085 10.5C53.385 12.2 56.885 13.7 60.385 14.9C62.185 15.5 63.985 16 65.785 16.3C67.585 16.7 69.485 16.9 71.285 17H71.985H72.285H72.485H72.585H73.985L75.385 16.9C75.885 16.8 76.285 16.8 76.785 16.7C77.685 16.5 78.585 16.3 79.385 15.9C80.285 15.6 80.985 15.1 81.785 14.5L82.285 14C82.485 13.8 82.585 13.7 82.785 13.5C82.985 13.3 83.085 13.1 83.185 13C83.285 12.8 83.485 12.6 83.585 12.4C83.685 12.2 83.785 12 83.885 11.8L84.185 11.2C84.285 11 84.285 10.8 84.385 10.5C84.485 10.3 84.485 10 84.485 9.8C84.585 8.9 84.485 8.00001 84.285 7.10001C84.185 6.90001 84.185 6.7 84.085 6.5C83.985 6.3 83.885 6.10001 83.785 5.90001L83.385 5.3C83.285 5.1 83.085 4.9 82.985 4.8C82.385 4.1 81.6851 3.6 80.885 3.2C80.085 2.8 79.185 2.50001 78.285 2.40001C78.085 2.30001 77.885 2.3 77.585 2.3C77.385 2.3 77.1851 2.2 76.885 2.2H76.185H75.885H75.585C75.085 2.2 74.685 2.2 74.185 2.3L73.485 2.40001H73.285H73.085L72.785 2.5C69.185 3.1 65.685 4.50001 62.485 6.40001C59.285 8.30001 56.285 10.6 53.485 13.1C50.685 15.6 47.985 18.2 45.085 20.7C43.685 22 42.185 23.2 40.485 24.2C38.885 25.2 36.985 26.1 34.985 26.4C33.985 26.5 32.985 26.5 31.985 26.3C30.985 26.1 29.985 25.6 29.285 24.8C28.885 24.4 28.585 23.9 28.485 23.4C28.385 23.1 28.385 22.8 28.385 22.6C28.385 22.3 28.485 22 28.585 21.8C28.785 21.3 29.185 20.9 29.585 20.6C29.985 20.3 30.485 20.1 30.885 19.9C31.085 19.8 31.385 19.8 31.585 19.7H31.685C31.785 19.7 31.785 19.7 31.785 19.7H31.985H32.385H32.585H32.785H33.185C33.485 19.7 33.685 19.7 33.885 19.7C34.885 19.8 35.785 20.1 36.585 20.6C38.285 21.5 39.685 22.9 40.785 24.4C41.385 25.1 41.885 25.9 42.485 26.7C42.985 27.5 43.485 28.3 43.985 29.1C44.885 30.8 45.685 32.5 46.485 34.3L46.585 34.4L46.485 34.6L43.485 41.1L42.485 43.3L41.485 41.2L38.485 34.7L38.385 34.5L38.485 34.4C39.185 32.6 39.985 30.9 40.985 29.2C41.485 28.4 41.885 27.6 42.485 26.8C42.985 26 43.585 25.2 44.185 24.5C45.385 23 46.685 21.6 48.385 20.7C49.185 20.2 50.185 19.9 51.085 19.8C51.285 19.8 51.585 19.7 51.785 19.8H52.185H52.385H52.585C52.785 19.8 53.085 19.9 53.285 19.9C53.485 19.9 53.785 20 53.985 20.1C54.485 20.3 54.885 20.5 55.385 20.8C55.785 21.1 56.185 21.5 56.385 22C56.485 22.3 56.585 22.5 56.585 22.8C56.585 23.1 56.585 23.4 56.485 23.7C56.385 24.3 56.085 24.8 55.685 25.2C54.885 26 53.885 26.5 52.885 26.7H52.785C52.785 26.7 52.785 26.7 52.685 26.7H52.485L52.185 26.8C51.885 26.8 51.685 26.9 51.385 26.9C50.885 26.9 50.385 26.9 49.885 26.8C48.885 26.7 47.885 26.4 46.985 26C46.085 25.6 45.185 25.1 44.385 24.6C42.785 23.5 41.285 22.3 39.885 21C37.085 18.4 34.385 15.8 31.585 13.3C30.885 12.7 30.185 12.1 29.385 11.5C28.685 10.9 27.885 10.3 27.185 9.8C25.685 8.7 24.085 7.6 22.485 6.7C19.285 4.9 15.785 3.40001 12.185 2.90001C10.385 2.60001 8.58504 2.5 6.78504 2.8C5.88504 3 5.08505 3.20001 4.18505 3.60001C3.38505 4.00001 2.68505 4.6 2.08505 5.2C0.885046 6.5 0.28504 8.5 0.485041 10.3C0.585041 11.2 0.885042 12.1 1.38504 12.9C1.48504 13.1 1.58504 13.3 1.78504 13.5C1.88504 13.7 2.08505 13.9 2.18505 14C2.38505 14.2 2.48504 14.3 2.68505 14.5L3.18505 15C3.88505 15.6 4.68505 16.1 5.58505 16.4C6.38505 16.8 7.28505 17 8.18505 17.2C9.98505 17.6 11.885 17.6 13.685 17.5C14.185 17.5 14.585 17.4 15.085 17.4C15.585 17.4 15.985 17.3 16.485 17.2C16.985 17.1 17.385 17.1 17.885 17L19.285 16.7C21.085 16.3 22.885 15.8 24.685 15.3C28.185 14.1 31.685 12.5 34.985 10.8C38.385 9.1 41.585 7.2 44.985 5.5C46.685 4.6 48.385 3.7 50.085 3C51.785 2.2 53.585 1.5 55.385 1C55.885 0.9 56.285 0.800006 56.785 0.600006L57.485 0.5C57.685 0.5 57.985 0.400009 58.185 0.400009C58.685 0.300009 59.185 0.300003 59.585 0.300003C59.785 0.300003 60.085 0.300003 60.285 0.300003H60.985C61.985 0.400003 62.985 0.6 63.885 1C64.785 1.4 65.685 2.00001 66.185 2.90001C66.485 3.30001 66.685 3.8 66.685 4.3C66.785 4.8 66.685 5.3 66.585 5.8C66.485 6.3 66.1851 6.70001 65.885 7.10001C65.585 7.50001 65.185 7.80001 64.785 8.10001C63.985 8.70001 63.085 9 62.085 9.2C61.185 9.4 60.185 9.4 59.285 9.2C60.185 9.2 61.185 9.20001 62.085 8.90001C62.985 8.70001 63.885 8.3 64.585 7.7C64.985 7.4 65.285 7.1 65.485 6.7C65.685 6.3 65.885 5.9 65.985 5.5C66.085 5.1 66.085 4.6 65.985 4.2C65.885 3.8 65.685 3.4 65.485 3C64.985 2.3 64.285 1.80001 63.485 1.40001C62.685 1.10001 61.785 0.900003 60.885 0.800003C58.985 0.700003 57.185 1.00001 55.385 1.60001C53.585 2.10001 51.885 2.9 50.185 3.7C48.485 4.5 46.785 5.4 45.185 6.3C41.885 8.1 38.585 10 35.185 11.7C31.785 13.4 28.385 15 24.685 16.2C22.885 16.8 20.985 17.3 19.185 17.7L17.785 17.9C17.285 18 16.885 18 16.385 18.1C15.885 18.2 15.385 18.2 14.985 18.2C14.485 18.2 13.985 18.3 13.585 18.3C11.685 18.3 9.78504 18.2 7.88504 17.7C6.98504 17.4 6.08505 17.1 5.18505 16.7C4.28505 16.3 3.48504 15.7 2.78504 15.1C2.08504 14.5 1.48504 13.7 0.985041 12.9C0.885041 12.7 0.785045 12.5 0.685045 12.3L0.385042 11.6C0.285042 11.4 0.285045 11.1 0.185045 10.9C0.0850451 10.7 0.0850466 10.4 0.0850466 10.2C-0.214953 8.3 0.28504 6.3 1.48504 4.7C2.08504 3.9 2.78505 3.3 3.68505 2.7C4.08504 2.5 4.58504 2.2 4.98504 2L5.28504 1.90001C5.38504 1.80001 5.48505 1.8 5.58505 1.8L6.28504 1.60001C6.48504 1.50001 6.78504 1.50001 6.98504 1.40001C7.18504 1.40001 7.48505 1.3 7.68505 1.3L8.38504 1.2H8.78504H9.18505C9.68505 1.2 10.185 1.2 10.685 1.2L11.385 1.3H11.585H11.785L12.185 1.40001C14.085 1.70001 15.985 2.20001 17.785 2.90001C19.585 3.60001 21.285 4.5 22.885 5.5C26.185 7.5 28.985 10 31.885 12.5C34.685 15 37.385 17.7 40.385 20C41.885 21.2 43.385 22.3 44.985 23.2C45.785 23.7 46.585 24.1 47.385 24.4C48.185 24.7 49.085 25 49.885 25.1C50.285 25.2 50.785 25.2 51.185 25.2C51.385 25.2 51.585 25.2 51.785 25.2H52.185H52.385H52.485C53.285 25.1 54.085 24.8 54.685 24.2C54.985 23.9 55.185 23.6 55.385 23.3C55.485 23 55.485 22.6 55.385 22.2C55.185 21.5 54.485 20.8 53.585 20.5C53.385 20.4 53.185 20.3 52.985 20.3C52.785 20.2 52.585 20.2 52.285 20.2H52.085H51.885H51.585C51.385 20.2 51.085 20.2 50.885 20.2C49.985 20.3 49.085 20.6 48.285 21C47.485 21.4 46.685 22 46.085 22.6C45.385 23.2 44.785 23.9 44.185 24.7C43.085 26.2 42.085 27.8 41.185 29.5C40.785 30.3 40.385 31.2 39.985 32.1C39.585 33 39.285 33.8 38.985 34.7V34.3L43.285 40.1H41.285L45.585 34.4V34.7C45.285 33.8 44.985 32.9 44.585 32.1C44.185 31.2 43.785 30.4 43.385 29.5C42.485 27.8 41.585 26.2 40.385 24.7C39.785 24 39.185 23.3 38.485 22.6C37.785 22 37.085 21.4 36.285 21C35.485 20.6 34.585 20.2 33.685 20.2C33.485 20.2 33.185 20.1 32.985 20.2H32.685H32.485H32.285L31.985 20.3H31.785H31.685H31.585C31.385 20.4 31.185 20.4 30.985 20.5C30.185 20.8 29.385 21.4 29.185 22.2C29.085 22.6 29.085 23 29.185 23.3C29.285 23.7 29.585 24 29.885 24.3C30.485 24.8 31.285 25.1 32.185 25.3C33.085 25.5 33.885 25.5 34.785 25.3C35.685 25.2 36.485 24.9 37.385 24.6C38.185 24.3 38.985 23.8 39.785 23.4C41.385 22.5 42.885 21.3 44.285 20.1C47.185 17.7 49.885 15.1 52.685 12.6C55.485 10.1 58.385 7.60001 61.685 5.60001C64.885 3.60001 68.585 2 72.385 1.5H72.785H72.985H73.185L73.885 1.40001C74.385 1.30001 74.885 1.40001 75.385 1.40001H75.785H76.185L76.885 1.5C77.085 1.5 77.385 1.60001 77.585 1.60001C77.785 1.70001 78.085 1.7 78.285 1.8C79.285 2 80.185 2.40001 80.985 2.90001C81.785 3.40001 82.585 4.10001 83.185 4.90001C83.785 5.70001 84.185 6.6 84.485 7.5C84.685 8.4 84.785 9.40001 84.585 10.4C84.485 11.4 84.085 12.3 83.585 13.1C83.085 13.9 82.485 14.7 81.785 15.3C80.385 16.6 78.585 17.5 76.685 18C76.185 18.1 75.785 18.2 75.285 18.3C74.785 18.4 74.285 18.4 73.785 18.5C73.285 18.5 72.885 18.6 72.385 18.6H72.285H72.185H71.985H71.585H70.885C68.985 18.5 67.085 18.3 65.185 18C63.285 17.6 61.485 17.1 59.685 16.5C56.085 15.3 52.585 13.7 49.185 12C45.785 10.3 42.585 8.40001 39.185 6.60001C37.485 5.70001 35.885 4.8 34.185 4C32.485 3.2 30.785 2.50001 28.985 1.90001C28.585 1.80001 28.085 1.7 27.685 1.5L26.985 1.40001C26.785 1.40001 26.485 1.3 26.285 1.3C25.885 1.2 25.385 1.2 24.885 1.2H24.485H24.285H24.185C24.185 1.2 24.185 1.2 24.085 1.2H23.385C22.485 1.3 21.585 1.4 20.785 1.8C19.985 2.1 19.185 2.70001 18.785 3.40001C18.585 3.80001 18.385 4.20001 18.285 4.60001C18.185 5.00001 18.185 5.50001 18.285 5.90001C18.385 6.30001 18.585 6.70001 18.785 7.10001C18.985 7.50001 19.385 7.80001 19.685 8.10001C20.385 8.70001 21.285 9.1 22.185 9.3C23.785 9 24.685 9 25.685 9Z" fill="url(#paint0_linear_5_416)"/>
<defs>
<linearGradient id="paint0_linear_5_416" x1="42.6185" y1="43.1758" x2="42.6185" y2="-0.0267988" gradientUnits="userSpaceOnUse">
<stop stop-color="#E8C36E"/>
<stop offset="0.3317" stop-color="#BE8729"/>
<stop offset="0.645313" stop-color="#BE8729"/>
<stop offset="1" stop-color="#E8C36E"/>
</linearGradient>
</defs>
</svg>
